<svg width="2044" height="1240" viewBox="0 0 2044 1240" fill="none" xmlns="http://www.w3.org/2000/svg">
<g filter="url(#filter0_d_1_3)">
<g clip-path="url(#clip0_1_3)">
<rect x="120" y="116" width="1804" height="1000" rx="58" fill="#053151"/>
<path opacity="0.23" d="M285.53 452.284H283.53V457.219L286.966 453.676L285.53 452.284ZM285.53 439.362H287.53V437.362H285.53V439.362ZM261.106 439.362V437.362H259.106V439.362H261.106ZM261.106 558.5H259.106V560.5H261.106V558.5ZM285.53 558.5V560.5H287.53V558.5H285.53ZM285.53 510.078L286.976 508.697L283.53 505.089V510.078H285.53ZM327.136 435.942C308.776 435.942 293.686 441 284.094 450.892L286.966 453.676C295.55 444.824 309.428 439.942 327.136 439.942V435.942ZM287.53 452.284V439.362H283.53V452.284H287.53ZM285.53 437.362H261.106V441.362H285.53V437.362ZM259.106 439.362V558.5H263.106V439.362H259.106ZM261.106 560.5H285.53V556.5H261.106V560.5ZM287.53 558.5V510.078H283.53V558.5H287.53ZM284.084 511.459C293.686 521.512 308.791 526.42 327.136 526.42V522.42C309.413 522.42 295.55 517.672 286.976 508.697L284.084 511.459ZM327.136 526.42C340.855 526.42 353.806 523.575 363.373 516.419C373.037 509.189 378.978 497.762 378.978 481.252H374.978C374.978 496.692 369.488 506.849 360.977 513.216C352.367 519.656 340.397 522.42 327.136 522.42V526.42ZM378.978 481.252C378.978 464.743 373.038 453.282 363.377 446.017C353.811 438.824 340.86 435.942 327.136 435.942V439.942C340.392 439.942 352.362 442.74 360.973 449.214C369.487 455.617 374.978 465.811 374.978 481.252H378.978ZM319.042 502.114C308.299 502.114 300.395 500.519 295.224 497.18C290.227 493.953 287.53 488.931 287.53 481.252H283.53C283.53 490.045 286.726 496.454 293.054 500.54C299.207 504.514 308.059 506.114 319.042 506.114V502.114ZM287.53 481.252C287.53 473.496 290.232 468.439 295.227 465.197C300.397 461.843 308.298 460.248 319.042 460.248V456.248C308.06 456.248 299.205 457.848 293.05 461.842C286.721 465.949 283.53 472.394 283.53 481.252H287.53ZM319.042 460.248C329.785 460.248 337.725 461.842 342.932 465.201C347.965 468.446 350.696 473.505 350.696 481.252H354.696C354.696 472.385 351.463 465.942 345.1 461.839C338.912 457.849 330.025 456.248 319.042 456.248V460.248ZM350.696 481.252C350.696 488.921 347.97 493.946 342.936 497.177C337.727 500.52 329.785 502.114 319.042 502.114V506.114C330.025 506.114 338.91 504.513 345.096 500.543C351.458 496.461 354.696 490.055 354.696 481.252H350.696ZM398.721 446.604L398.102 444.702L395.914 445.413L396.923 447.481L398.721 446.604ZM407.383 464.354L405.585 465.231L406.329 466.754L407.953 466.271L407.383 464.354ZM480.655 475.43L480.015 477.325L482.655 478.216V475.43H480.655ZM480.655 512.634H482.655V509.426L479.774 510.838L480.655 512.634ZM480.655 523H478.655V525H480.655V523ZM505.079 523V525H507.079V523H505.079ZM505.079 480.826H507.079V480.817L507.079 480.808L505.079 480.826ZM480.655 497.014L481.448 498.85L482.655 498.329V497.014H480.655ZM480.655 490.482H482.655V489.017L481.258 488.575L480.655 490.482ZM449.983 435.942C432.269 435.942 415.303 439.112 398.102 444.702L399.339 448.506C416.218 443.02 432.764 439.942 449.983 439.942V435.942ZM396.923 447.481L405.585 465.231L409.18 463.477L400.518 445.727L396.923 447.481ZM407.953 466.271C424.911 461.225 438.061 460.248 448.847 460.248V456.248C437.764 456.248 424.218 457.259 406.812 462.437L407.953 466.271ZM448.847 460.248C454.51 460.248 462.161 460.577 468.344 462.761C471.418 463.847 473.992 465.345 475.787 467.365C477.545 469.342 478.655 471.927 478.655 475.43H482.655C482.655 470.981 481.208 467.442 478.777 464.707C476.383 462.014 473.135 460.211 469.677 458.989C462.796 456.558 454.543 456.248 448.847 456.248V460.248ZM481.294 473.535C470.142 469.769 456.719 467.466 442.173 467.466V471.466C456.31 471.466 469.299 473.707 480.015 477.325L481.294 473.535ZM442.173 467.466C428.783 467.466 415.83 469.175 406.15 473.784C401.288 476.099 397.177 479.181 394.28 483.216C391.369 487.273 389.763 492.186 389.763 498.008H393.763C393.763 492.967 395.138 488.881 397.53 485.549C399.936 482.196 403.449 479.5 407.87 477.396C416.756 473.165 429.008 471.466 442.173 471.466V467.466ZM389.763 498.008C389.763 508.062 393.709 515.331 400.921 519.978C407.982 524.526 417.954 526.42 429.819 526.42V522.42C418.253 522.42 409.197 520.551 403.088 516.615C397.129 512.777 393.763 506.84 393.763 498.008H389.763ZM429.819 526.42C449.89 526.42 466.52 521.793 481.535 514.43L479.774 510.838C465.254 517.959 449.223 522.42 429.819 522.42V526.42ZM478.655 512.634V523H482.655V512.634H478.655ZM480.655 525H505.079V521H480.655V525ZM507.079 523V480.826H503.079V523H507.079ZM507.079 480.808C506.933 464.524 501.716 453.119 491.694 445.887C481.808 438.754 467.588 435.942 449.983 435.942V439.942C467.309 439.942 480.495 442.739 489.353 449.131C498.076 455.425 502.941 465.462 503.079 480.844L507.079 480.808ZM479.862 495.178C467.584 500.48 449.677 504.528 436.777 504.528V508.528C450.288 508.528 468.733 504.34 481.448 498.85L479.862 495.178ZM436.777 504.528C430.378 504.528 425.559 504.329 422.34 503.188C420.791 502.638 419.771 501.921 419.12 501.032C418.475 500.152 418.045 498.903 418.045 497.014H414.045C414.045 499.527 414.626 501.668 415.894 503.397C417.155 505.118 418.948 506.229 421.003 506.957C424.99 508.372 430.537 508.528 436.777 508.528V504.528ZM418.045 497.014C418.045 495.356 418.56 494.036 419.54 492.92C420.556 491.762 422.162 490.727 424.476 489.873C429.136 488.155 436.119 487.37 445.155 487.37V483.37C436.014 483.37 428.443 484.147 423.092 486.121C420.4 487.113 418.136 488.456 416.534 490.281C414.896 492.147 414.045 494.412 414.045 497.014H418.045ZM445.155 487.37C460.413 487.37 471.712 489.748 480.051 492.389L481.258 488.575C472.557 485.82 460.852 483.37 445.155 483.37V487.37ZM478.655 490.482V497.014H482.655V490.482H478.655ZM548.851 452.284H546.851V457.219L550.287 453.676L548.851 452.284ZM548.851 439.362H550.851V437.362H548.851V439.362ZM524.427 439.362V437.362H522.427V439.362H524.427ZM524.427 558.5H522.427V560.5H524.427V558.5ZM548.851 558.5V560.5H550.851V558.5H548.851ZM548.851 510.078L550.297 508.697L546.851 505.089V510.078H548.851ZM590.457 435.942C572.097 435.942 557.007 441 547.415 450.892L550.287 453.676C558.871 444.824 572.749 439.942 590.457 439.942V435.942ZM550.851 452.284V439.362H546.851V452.284H550.851ZM548.851 437.362H524.427V441.362H548.851V437.362ZM522.427 439.362V558.5H526.427V439.362H522.427ZM524.427 560.5H548.851V556.5H524.427V560.5ZM550.851 558.5V510.078H546.851V558.5H550.851ZM547.405 511.459C557.007 521.512 572.113 526.42 590.457 526.42V522.42C572.734 522.42 558.871 517.672 550.297 508.697L547.405 511.459ZM590.457 526.42C604.177 526.42 617.127 523.575 626.694 516.419C636.358 509.189 642.299 497.762 642.299 481.252H638.299C638.299 496.692 632.809 506.849 624.298 513.216C615.689 519.656 603.718 522.42 590.457 522.42V526.42ZM642.299 481.252C642.299 464.743 636.359 453.282 626.698 446.017C617.132 438.824 604.181 435.942 590.457 435.942V439.942C603.713 439.942 615.684 442.74 624.294 449.214C632.809 455.617 638.299 465.811 638.299 481.252H642.299ZM582.363 502.114C571.62 502.114 563.716 500.519 558.545 497.18C553.548 493.953 550.851 488.931 550.851 481.252H546.851C546.851 490.045 550.047 496.454 556.375 500.54C562.528 504.514 571.381 506.114 582.363 506.114V502.114ZM550.851 481.252C550.851 473.496 553.554 468.439 558.549 465.197C563.718 461.843 571.619 460.248 582.363 460.248V456.248C571.381 456.248 562.526 457.848 556.371 461.842C550.042 465.949 546.851 472.394 546.851 481.252H550.851ZM582.363 460.248C593.106 460.248 601.046 461.842 606.254 465.201C611.286 468.446 614.017 473.505 614.017 481.252H618.017C618.017 472.385 614.784 465.942 608.421 461.839C602.233 457.849 593.346 456.248 582.363 456.248V460.248ZM614.017 481.252C614.017 488.921 611.292 493.946 606.257 497.177C601.048 500.52 593.106 502.114 582.363 502.114V506.114C593.347 506.114 602.231 504.513 608.418 500.543C614.779 496.461 618.017 490.055 618.017 481.252H614.017ZM662.042 446.604L661.424 444.702L659.235 445.413L660.244 447.481L662.042 446.604ZM670.704 464.354L668.906 465.231L669.65 466.754L671.274 466.271L670.704 464.354ZM743.976 475.43L743.336 477.325L745.976 478.216V475.43H743.976ZM743.976 512.634H745.976V509.426L743.095 510.838L743.976 512.634ZM743.976 523H741.976V525H743.976V523ZM768.4 523V525H770.4V523H768.4ZM768.4 480.826H770.4V480.817L770.4 480.808L768.4 480.826ZM743.976 497.014L744.769 498.85L745.976 498.329V497.014H743.976ZM743.976 490.482H745.976V489.017L744.58 488.575L743.976 490.482ZM713.304 435.942C695.591 435.942 678.625 439.112 661.424 444.702L662.66 448.506C679.539 443.02 696.085 439.942 713.304 439.942V435.942ZM660.244 447.481L668.906 465.231L672.501 463.477L663.839 445.727L660.244 447.481ZM671.274 466.271C688.233 461.225 701.382 460.248 712.168 460.248V456.248C701.086 456.248 687.539 457.259 670.134 462.437L671.274 466.271ZM712.168 460.248C717.831 460.248 725.483 460.577 731.666 462.761C734.739 463.847 737.314 465.345 739.109 467.365C740.866 469.342 741.976 471.927 741.976 475.43H745.976C745.976 470.981 744.529 467.442 742.098 464.707C739.704 462.014 736.457 460.211 732.998 458.989C726.117 456.558 717.864 456.248 712.168 456.248V460.248ZM744.616 473.535C733.463 469.769 720.04 467.466 705.494 467.466V471.466C719.632 471.466 732.62 473.707 743.336 477.325L744.616 473.535ZM705.494 467.466C692.104 467.466 679.151 469.175 669.471 473.784C664.609 476.099 660.498 479.181 657.601 483.216C654.69 487.273 653.084 492.186 653.084 498.008H657.084C657.084 492.967 658.46 488.881 660.851 485.549C663.257 482.196 666.77 479.5 671.191 477.396C680.078 473.165 692.33 471.466 705.494 471.466V467.466ZM653.084 498.008C653.084 508.062 657.03 515.331 664.243 519.978C671.303 524.526 681.275 526.42 693.14 526.42V522.42C681.575 522.42 672.518 520.551 666.409 516.615C660.451 512.777 657.084 506.84 657.084 498.008H653.084ZM693.14 526.42C713.211 526.42 729.841 521.793 744.856 514.43L743.095 510.838C728.575 517.959 712.544 522.42 693.14 522.42V526.42ZM741.976 512.634V523H745.976V512.634H741.976ZM743.976 525H768.4V521H743.976V525ZM770.4 523V480.826H766.4V523H770.4ZM770.4 480.808C770.254 464.524 765.037 453.119 755.015 445.887C745.13 438.754 730.909 435.942 713.304 435.942V439.942C730.631 439.942 743.816 442.739 752.675 449.131C761.397 455.425 766.262 465.462 766.4 480.844L770.4 480.808ZM743.183 495.178C730.905 500.48 712.998 504.528 700.098 504.528V508.528C713.609 508.528 732.054 504.34 744.769 498.85L743.183 495.178ZM700.098 504.528C693.699 504.528 688.88 504.329 685.661 503.188C684.113 502.638 683.092 501.921 682.441 501.032C681.796 500.152 681.366 498.903 681.366 497.014H677.366C677.366 499.527 677.948 501.668 679.215 503.397C680.476 505.118 682.269 506.229 684.324 506.957C688.311 508.372 693.858 508.528 700.098 508.528V504.528ZM681.366 497.014C681.366 495.356 681.881 494.036 682.861 492.92C683.878 491.762 685.483 490.727 687.797 489.873C692.457 488.155 699.441 487.37 708.476 487.37V483.37C699.335 483.37 691.764 484.147 686.413 486.121C683.721 487.113 681.457 488.456 679.855 490.281C678.217 492.147 677.366 494.412 677.366 497.014H681.366ZM708.476 487.37C723.735 487.37 735.033 489.748 743.372 492.389L744.58 488.575C735.879 485.82 724.173 483.37 708.476 483.37V487.37ZM741.976 490.482V497.014H745.976V490.482H741.976ZM341.478 574.582L341.325 576.576L343.478 576.742V574.582H341.478ZM341.478 557.4H343.478V555.617L341.706 555.413L341.478 557.4ZM281.696 587.362V589.362H283.696V587.362H281.696ZM259.686 587.362V585.362H257.686V587.362H259.686ZM259.686 607.668H257.686V609.668H259.686V607.668ZM281.696 607.668H283.696V605.668H281.696V607.668ZM281.696 671H279.696V673H281.696V671ZM306.12 671V673H308.12V671H306.12ZM306.12 607.668V605.668H304.12V607.668H306.12ZM341.478 607.668V609.668H343.478V607.668H341.478ZM341.478 587.362H343.478V585.362H341.478V587.362ZM306.12 587.362L304.122 587.281L304.037 589.362H306.12V587.362ZM324.012 575.872C330.197 575.872 335.825 576.153 341.325 576.576L341.631 572.588C336.055 572.159 330.323 571.872 324.012 571.872V575.872ZM343.478 574.582V557.4H339.478V574.582H343.478ZM341.706 555.413C329.254 553.982 324.772 553.98 316.344 553.98V557.98C324.672 557.98 328.994 557.978 341.25 559.387L341.706 555.413ZM316.344 553.98C303.988 553.98 294.798 556.012 288.671 560.55C282.407 565.188 279.696 572.167 279.696 581.114H283.696C283.696 573.021 286.097 567.433 291.051 563.764C296.142 559.995 304.276 557.98 316.344 557.98V553.98ZM279.696 581.114V587.362H283.696V581.114H279.696ZM281.696 585.362H259.686V589.362H281.696V585.362ZM257.686 587.362V607.668H261.686V587.362H257.686ZM259.686 609.668H281.696V605.668H259.686V609.668ZM279.696 607.668V671H283.696V607.668H279.696ZM281.696 673H306.12V669H281.696V673ZM308.12 671V607.668H304.12V671H308.12ZM306.12 609.668H341.478V605.668H306.12V609.668ZM343.478 607.668V587.362H339.478V607.668H343.478ZM341.478 585.362H306.12V589.362H341.478V585.362ZM308.118 587.443C308.327 582.295 309.299 579.743 311.226 578.263C313.314 576.659 317.034 575.872 324.012 575.872V571.872C317.074 571.872 312.062 572.576 308.789 575.09C305.355 577.728 304.339 581.921 304.122 587.281L308.118 587.443ZM361.002 594.604L360.384 592.702L358.195 593.413L359.204 595.481L361.002 594.604ZM369.664 612.354L367.866 613.231L368.61 614.754L370.234 614.271L369.664 612.354ZM442.936 623.43L442.296 625.325L444.936 626.216V623.43H442.936ZM442.936 660.634H444.936V657.426L442.055 658.838L442.936 660.634ZM442.936 671H440.936V673H442.936V671ZM467.36 671V673H469.36V671H467.36ZM467.36 628.826H469.36V628.817L469.36 628.808L467.36 628.826ZM442.936 645.014L443.729 646.85L444.936 646.329V645.014H442.936ZM442.936 638.482H444.936V637.017L443.54 636.575L442.936 638.482ZM412.264 583.942C394.551 583.942 377.585 587.112 360.384 592.702L361.62 596.506C378.499 591.02 395.045 587.942 412.264 587.942V583.942ZM359.204 595.481L367.866 613.231L371.461 611.477L362.799 593.727L359.204 595.481ZM370.234 614.271C387.193 609.225 400.342 608.248 411.128 608.248V604.248C400.046 604.248 386.499 605.259 369.094 610.437L370.234 614.271ZM411.128 608.248C416.791 608.248 424.443 608.577 430.626 610.761C433.699 611.847 436.274 613.345 438.069 615.365C439.826 617.342 440.936 619.927 440.936 623.43H444.936C444.936 618.981 443.489 615.442 441.058 612.707C438.664 610.014 435.417 608.211 431.958 606.989C425.077 604.558 416.824 604.248 411.128 604.248V608.248ZM443.576 621.535C432.423 617.769 419 615.466 404.454 615.466V619.466C418.592 619.466 431.58 621.707 442.296 625.325L443.576 621.535ZM404.454 615.466C391.064 615.466 378.111 617.175 368.431 621.784C363.569 624.099 359.458 627.181 356.561 631.216C353.65 635.273 352.044 640.186 352.044 646.008H356.044C356.044 640.967 357.42 636.881 359.811 633.549C362.218 630.196 365.73 627.5 370.151 625.396C379.038 621.165 391.29 619.466 404.454 619.466V615.466ZM352.044 646.008C352.044 656.062 355.99 663.331 363.203 667.978C370.263 672.526 380.235 674.42 392.1 674.42V670.42C380.535 670.42 371.478 668.551 365.369 664.615C359.411 660.777 356.044 654.84 356.044 646.008H352.044ZM392.1 674.42C412.171 674.42 428.801 669.793 443.816 662.43L442.055 658.838C427.535 665.959 411.504 670.42 392.1 670.42V674.42ZM440.936 660.634V671H444.936V660.634H440.936ZM442.936 673H467.36V669H442.936V673ZM469.36 671V628.826H465.36V671H469.36ZM469.36 628.808C469.214 612.524 463.997 601.119 453.975 593.887C444.09 586.754 429.869 583.942 412.264 583.942V587.942C429.591 587.942 442.776 590.739 451.635 597.131C460.357 603.425 465.222 613.462 465.36 628.844L469.36 628.808ZM442.143 643.178C429.865 648.48 411.958 652.528 399.058 652.528V656.528C412.569 656.528 431.014 652.34 443.729 646.85L442.143 643.178ZM399.058 652.528C392.659 652.528 387.84 652.329 384.621 651.188C383.073 650.638 382.052 649.921 381.401 649.032C380.756 648.152 380.326 646.903 380.326 645.014H376.326C376.326 647.527 376.908 649.668 378.175 651.397C379.436 653.118 381.229 654.229 383.284 654.957C387.271 656.372 392.818 656.528 399.058 656.528V652.528ZM380.326 645.014C380.326 643.356 380.841 642.036 381.821 640.92C382.838 639.762 384.443 638.727 386.757 637.873C391.417 636.155 398.401 635.37 407.436 635.37V631.37C398.295 631.37 390.724 632.147 385.373 634.121C382.681 635.113 380.417 636.456 378.815 638.281C377.177 640.147 376.326 642.412 376.326 645.014H380.326ZM407.436 635.37C422.695 635.37 433.993 637.748 442.332 640.389L443.54 636.575C434.839 633.82 423.133 631.37 407.436 631.37V635.37ZM440.936 638.482V645.014H444.936V638.482H440.936ZM585.399 601.278L583.645 602.24L584.754 604.261L586.599 602.878L585.399 601.278ZM510.991 600.994H508.991V605.145L512.237 602.558L510.991 600.994ZM510.991 587.362H512.991V585.362H510.991V587.362ZM486.709 587.362V585.362H484.709V587.362H486.709ZM486.709 671H484.709V673H486.709V671ZM510.991 671V673H512.991V671H510.991ZM510.991 621.726L509.522 620.368L508.991 620.943V621.726H510.991ZM565.945 671H563.945V673H565.945V671ZM590.227 671V673H592.214L592.226 671.012L590.227 671ZM590.511 624.14L592.511 624.152V624.14H590.511ZM590.369 619.738L589.027 618.254L588.278 618.932L588.378 619.937L590.369 619.738ZM643.335 671H641.335V673H643.335V671ZM667.617 671V673H669.604L669.616 671.012L667.617 671ZM667.901 624.14L669.9 624.152L669.901 624.137L669.9 624.121L667.901 624.14ZM631.833 583.942C610.585 583.942 595.264 591.379 584.199 599.678L586.599 602.878C597.117 594.989 611.616 587.942 631.833 587.942V583.942ZM587.152 600.316C580.254 587.746 567.414 583.942 554.443 583.942V587.942C566.747 587.942 577.763 591.522 583.645 602.24L587.152 600.316ZM554.443 583.942C533.14 583.942 519.082 591.989 509.744 599.43L512.237 602.558C521.075 595.515 534.281 587.942 554.443 587.942V583.942ZM512.991 600.994V587.362H508.991V600.994H512.991ZM510.991 585.362H486.709V589.362H510.991V585.362ZM484.709 587.362V671H488.709V587.362H484.709ZM486.709 673H510.991V669H486.709V673ZM512.991 671V621.726H508.991V671H512.991ZM512.459 623.084C519.07 615.934 532.182 608.958 545.639 608.958V604.958C530.979 604.958 516.827 612.466 509.522 620.368L512.459 623.084ZM545.639 608.958C553.956 608.958 558.214 611.154 560.606 614.874C563.163 618.85 563.945 625.032 563.945 633.938H567.945C567.945 625.094 567.235 617.786 563.97 612.71C560.54 607.377 554.645 604.958 545.639 604.958V608.958ZM563.945 633.938V671H567.945V633.938H563.945ZM565.945 673H590.227V669H565.945V673ZM592.226 671.012L592.51 624.152L588.511 624.128L588.227 670.988L592.226 671.012ZM592.511 624.14C592.511 622.597 592.512 621.075 592.359 619.539L588.378 619.937C588.509 621.241 588.511 622.559 588.511 624.14H592.511ZM591.71 621.222C598.789 614.823 610.823 608.958 623.029 608.958V604.958C609.674 604.958 596.716 611.305 589.027 618.254L591.71 621.222ZM623.029 608.958C631.346 608.958 635.604 611.154 637.996 614.874C640.553 618.85 641.335 625.032 641.335 633.938H645.335C645.335 625.094 644.625 617.786 641.36 612.71C637.93 607.377 632.035 604.958 623.029 604.958V608.958ZM641.335 633.938V671H645.335V633.938H641.335ZM643.335 673H667.617V669H643.335V673ZM669.616 671.012L669.9 624.152L665.901 624.128L665.617 670.988L669.616 671.012ZM669.9 624.121C669.755 608.626 665.302 598.447 658.101 592.189C650.949 585.974 641.442 583.942 631.833 583.942V587.942C640.967 587.942 649.352 589.886 655.477 595.208C661.553 600.488 665.762 609.408 665.901 624.159L669.9 624.121Z" fill="white"/>
<g filter="url(#filter1_f_1_3)">
<circle cx="-187.5" cy="-68.5" r="702.5" fill="#35D1E7" fill-opacity="0.16"/>
</g>
<g filter="url(#filter2_f_1_3)">
<circle cx="2439.5" cy="1076.5" r="819.5" fill="#35D1E7" fill-opacity="0.16"/>
</g>
<path opacity="0.61" d="M270.479 241.253C263.96 241.253 257.706 242.419 251.346 244.486L254.579 251.111C260.992 249.203 265.974 248.832 270.055 248.832C274.295 248.832 281.927 249.309 281.927 255.245C277.846 253.867 272.917 253.019 267.564 253.019C257.653 253.019 248.749 255.563 248.749 263.672C248.749 270.721 254.208 273.53 262.953 273.53C270.32 273.53 276.415 271.834 281.927 269.131V273H291.043V257.259C290.937 245.44 283.517 241.253 270.479 241.253ZM281.927 263.301C277.263 265.315 270.479 266.852 265.55 266.852C260.833 266.852 257.812 266.587 257.812 263.301C257.812 260.121 261.893 258.955 268.677 258.955C274.454 258.955 278.747 259.856 281.927 260.863V263.301ZM295.304 257.418C295.304 268.866 303.996 273.53 316.928 273.53C328.588 273.53 336.803 269.714 338.287 260.545H329.012C327.793 264.573 323.5 265.951 316.928 265.951C309.137 265.951 304.367 263.884 304.367 257.418C304.367 250.899 309.137 248.832 316.928 248.832C323.5 248.832 327.793 250.21 329.012 254.238H338.287C336.803 245.069 328.588 241.253 316.928 241.253C303.996 241.253 295.304 245.917 295.304 257.418ZM341.963 257.418C341.963 268.866 350.655 273.53 363.587 273.53C375.247 273.53 383.462 269.714 384.946 260.545H375.671C374.452 264.573 370.159 265.951 363.587 265.951C355.796 265.951 351.026 263.884 351.026 257.418C351.026 250.899 355.796 248.832 363.587 248.832C370.159 248.832 374.452 250.21 375.671 254.238H384.946C383.462 245.069 375.247 241.253 363.587 241.253C350.655 241.253 341.963 245.917 341.963 257.418ZM409.715 266.163C403.673 266.163 398.903 264.52 397.896 259.538H431.604C431.604 245.334 422.117 241.253 410.245 241.253C397.578 241.253 388.621 245.917 388.621 257.418C388.621 268.866 397.843 273.53 409.715 273.53C421.269 273.53 429.007 269.767 431.074 261.817H422.064C419.785 264.997 415.969 266.163 409.715 266.163ZM410.192 248.143C415.916 248.143 420.368 249.362 421.905 253.761H398.214C399.645 249.362 403.991 248.143 410.192 248.143ZM434.711 262.029C434.711 271.993 445.841 273.53 457.872 273.53C469.903 273.53 477.853 271.993 477.853 263.195C477.853 254.874 469.532 254.556 457.342 253.655C446.583 252.86 444.94 252.542 444.94 250.581C444.94 248.779 447.378 248.143 455.964 248.143C464.391 248.143 467.677 248.779 467.677 251.376H476.793C476.793 242.79 468.26 241.253 456.494 241.253C445.364 241.253 435.824 242.79 435.824 250.952C435.824 258.478 442.555 259.538 456.282 260.333C467.253 261.022 468.737 261.181 468.737 263.566C468.737 266.004 467.147 266.64 457.342 266.64C447.219 266.64 443.774 265.368 443.774 262.029H434.711ZM481.525 262.029C481.525 271.993 492.655 273.53 504.686 273.53C516.717 273.53 524.667 271.993 524.667 263.195C524.667 254.874 516.346 254.556 504.156 253.655C493.397 252.86 491.754 252.542 491.754 250.581C491.754 248.779 494.192 248.143 502.778 248.143C511.205 248.143 514.491 248.779 514.491 251.376H523.607C523.607 242.79 515.074 241.253 503.308 241.253C492.178 241.253 482.638 242.79 482.638 250.952C482.638 258.478 489.369 259.538 503.096 260.333C514.067 261.022 515.551 261.181 515.551 263.566C515.551 266.004 513.961 266.64 504.156 266.64C494.033 266.64 490.588 265.368 490.588 262.029H481.525ZM579.676 241.253C572.945 241.253 567.539 243.108 564.147 246.606V241.783H555.031V286.25H564.147V268.177C567.539 271.728 572.945 273.53 579.676 273.53C589.746 273.53 598.279 269.343 598.279 257.418C598.279 245.493 589.746 241.253 579.676 241.253ZM576.655 265.951C568.546 265.951 564.147 263.566 564.147 257.418C564.147 251.217 568.546 248.832 576.655 248.832C584.764 248.832 589.216 251.217 589.216 257.418C589.216 263.566 584.764 265.951 576.655 265.951ZM623.407 241.253C616.888 241.253 610.634 242.419 604.274 244.486L607.507 251.111C613.92 249.203 618.902 248.832 622.983 248.832C627.223 248.832 634.855 249.309 634.855 255.245C630.774 253.867 625.845 253.019 620.492 253.019C610.581 253.019 601.677 255.563 601.677 263.672C601.677 270.721 607.136 273.53 615.881 273.53C623.248 273.53 629.343 271.834 634.855 269.131V273H643.971V257.259C643.865 245.44 636.445 241.253 623.407 241.253ZM634.855 263.301C630.191 265.315 623.407 266.852 618.478 266.852C613.761 266.852 610.74 266.587 610.74 263.301C610.74 260.121 614.821 258.955 621.605 258.955C627.382 258.955 631.675 259.856 634.855 260.863V263.301ZM647.611 262.029C647.611 271.993 658.741 273.53 670.772 273.53C682.803 273.53 690.753 271.993 690.753 263.195C690.753 254.874 682.432 254.556 670.242 253.655C659.483 252.86 657.84 252.542 657.84 250.581C657.84 248.779 660.278 248.143 668.864 248.143C677.291 248.143 680.577 248.779 680.577 251.376H689.693C689.693 242.79 681.16 241.253 669.394 241.253C658.264 241.253 648.724 242.79 648.724 250.952C648.724 258.478 655.455 259.538 669.182 260.333C680.153 261.022 681.637 261.181 681.637 263.566C681.637 266.004 680.047 266.64 670.242 266.64C660.119 266.64 656.674 265.368 656.674 262.029H647.611ZM694.425 262.029C694.425 271.993 705.555 273.53 717.586 273.53C729.617 273.53 737.567 271.993 737.567 263.195C737.567 254.874 729.246 254.556 717.056 253.655C706.297 252.86 704.654 252.542 704.654 250.581C704.654 248.779 707.092 248.143 715.678 248.143C724.105 248.143 727.391 248.779 727.391 251.376H736.507C736.507 242.79 727.974 241.253 716.208 241.253C705.078 241.253 695.538 242.79 695.538 250.952C695.538 258.478 702.269 259.538 715.996 260.333C726.967 261.022 728.451 261.181 728.451 263.566C728.451 266.004 726.861 266.64 717.056 266.64C706.933 266.64 703.488 265.368 703.488 262.029H694.425Z" fill="#20FFC9"/>
<g opacity="0.91" filter="url(#filter3_d_1_3)">
<path d="M321.168 434.546C302.626 434.546 287.734 439.656 278.39 449.292V436.006H253.278V558.5H278.39V508.714C287.734 518.496 302.626 523.46 321.168 523.46C348.908 523.46 372.414 511.926 372.414 479.076C372.414 446.226 348.908 434.546 321.168 434.546ZM312.846 502.582C290.508 502.582 278.39 496.012 278.39 479.076C278.39 461.994 290.508 455.424 312.846 455.424C335.184 455.424 347.448 461.994 347.448 479.076C347.448 496.012 335.184 502.582 312.846 502.582ZM441.635 434.546C423.677 434.546 406.449 437.758 388.929 443.452L397.835 461.702C415.501 456.446 429.225 455.424 440.467 455.424C452.147 455.424 473.171 456.738 473.171 473.09C461.929 469.294 448.351 466.958 433.605 466.958C406.303 466.958 381.775 473.966 381.775 496.304C381.775 515.722 396.813 523.46 420.903 523.46C441.197 523.46 457.987 518.788 473.171 511.342V522H498.283V478.638C497.991 446.08 477.551 434.546 441.635 434.546ZM473.171 495.282C460.323 500.83 441.635 505.064 428.057 505.064C415.063 505.064 406.741 504.334 406.741 495.282C406.741 486.522 417.983 483.31 436.671 483.31C452.585 483.31 464.411 485.792 473.171 488.566V495.282ZM580.227 434.546C561.685 434.546 546.793 439.656 537.449 449.292V436.006H512.337V558.5H537.449V508.714C546.793 518.496 561.685 523.46 580.227 523.46C607.967 523.46 631.473 511.926 631.473 479.076C631.473 446.226 607.967 434.546 580.227 434.546ZM571.905 502.582C549.567 502.582 537.449 496.012 537.449 479.076C537.449 461.994 549.567 455.424 571.905 455.424C594.243 455.424 606.507 461.994 606.507 479.076C606.507 496.012 594.243 502.582 571.905 502.582ZM700.694 434.546C682.736 434.546 665.508 437.758 647.988 443.452L656.894 461.702C674.56 456.446 688.284 455.424 699.526 455.424C711.206 455.424 732.23 456.738 732.23 473.09C720.988 469.294 707.41 466.958 692.664 466.958C665.362 466.958 640.834 473.966 640.834 496.304C640.834 515.722 655.872 523.46 679.962 523.46C700.256 523.46 717.046 518.788 732.23 511.342V522H757.342V478.638C757.05 446.08 736.61 434.546 700.694 434.546ZM732.23 495.282C719.382 500.83 700.694 505.064 687.116 505.064C674.122 505.064 665.8 504.334 665.8 495.282C665.8 486.522 677.042 483.31 695.73 483.31C711.644 483.31 723.47 485.792 732.23 488.566V495.282ZM317.956 574.136C324.38 574.136 330.22 574.428 335.914 574.866V557.2C323.212 555.74 318.686 555.74 310.072 555.74C284.96 555.74 274.448 564.062 274.448 581.582V588.006H251.818V608.884H274.448V674H299.56V608.884H335.914V588.006H299.56C299.998 577.202 303.648 574.136 317.956 574.136ZM402.854 586.546C384.896 586.546 367.668 589.758 350.148 595.452L359.054 613.702C376.72 608.446 390.444 607.424 401.686 607.424C413.366 607.424 434.39 608.738 434.39 625.09C423.148 621.294 409.57 618.958 394.824 618.958C367.522 618.958 342.994 625.966 342.994 648.304C342.994 667.722 358.032 675.46 382.122 675.46C402.416 675.46 419.206 670.788 434.39 663.342V674H459.502V630.638C459.21 598.08 438.77 586.546 402.854 586.546ZM434.39 647.282C421.542 652.83 402.854 657.064 389.276 657.064C376.282 657.064 367.96 656.334 367.96 647.282C367.96 638.522 379.202 635.31 397.89 635.31C413.804 635.31 425.63 637.792 434.39 640.566V647.282ZM622.768 586.546C601.452 586.546 586.121 593.992 575.026 602.314C568.455 590.342 556.192 586.546 543.198 586.546C521.881 586.546 507.866 594.576 498.521 602.022V588.006H473.555V674H498.521V623.338C505.675 615.6 519.692 608.154 534.146 608.154C551.958 608.154 555.023 617.644 555.023 635.894V674H579.989L580.282 625.82C580.282 624.214 580.282 622.754 580.136 621.294C587.728 614.432 600.576 608.154 613.715 608.154C631.527 608.154 634.594 617.644 634.594 635.894V674H659.56L659.851 625.82C659.56 594.722 642.04 586.546 622.768 586.546Z" fill="url(#paint0_linear_1_3)"/>
</g>
</g>
<rect x="123.5" y="119.5" width="1797" height="993" rx="54.5" stroke="url(#paint1_linear_1_3)" stroke-width="7"/>
</g>
<defs>
<filter id="filter0_d_1_3" x="0" y="0" width="2044" height="1240" filterUnits="userSpaceOnUse" color-interpolation-filters="sRGB">
<feFlood flood-opacity="0" result="BackgroundImageFix"/>
<feColorMatrix in="SourceAlpha" type="matrix" values="0 0 0 0 0 0 0 0 0 0 0 0 0 0 0 0 0 0 127 0" result="hardAlpha"/>
<feOffset dy="4"/>
<feGaussianBlur stdDeviation="60"/>
<feComposite in2="hardAlpha" operator="out"/>
<feColorMatrix type="matrix" values="0 0 0 0 0 0 0 0 0 0 0 0 0 0 0 0 0 0 0.33 0"/>
<feBlend mode="normal" in2="BackgroundImageFix" result="effect1_dropShadow_1_3"/>
<feBlend mode="normal" in="SourceGraphic" in2="effect1_dropShadow_1_3" result="shape"/>
</filter>
<filter id="filter1_f_1_3" x="-1278" y="-1159" width="2181" height="2181" filterUnits="userSpaceOnUse" color-interpolation-filters="sRGB">
<feFlood flood-opacity="0" result="BackgroundImageFix"/>
<feBlend mode="normal" in="SourceGraphic" in2="BackgroundImageFix" result="shape"/>
<feGaussianBlur stdDeviation="194" result="effect1_foregroundBlur_1_3"/>
</filter>
<filter id="filter2_f_1_3" x="1232" y="-131" width="2415" height="2415" filterUnits="userSpaceOnUse" color-interpolation-filters="sRGB">
<feFlood flood-opacity="0" result="BackgroundImageFix"/>
<feBlend mode="normal" in="SourceGraphic" in2="BackgroundImageFix" result="shape"/>
<feGaussianBlur stdDeviation="194" result="effect1_foregroundBlur_1_3"/>
</filter>
<filter id="filter3_d_1_3" x="182.818" y="369.546" width="643.524" height="378.914" filterUnits="userSpaceOnUse" color-interpolation-filters="sRGB">
<feFlood flood-opacity="0" result="BackgroundImageFix"/>
<feColorMatrix in="SourceAlpha" type="matrix" values="0 0 0 0 0 0 0 0 0 0 0 0 0 0 0 0 0 0 127 0" result="hardAlpha"/>
<feOffset dy="4"/>
<feGaussianBlur stdDeviation="34.5"/>
<feComposite in2="hardAlpha" operator="out"/>
<feColorMatrix type="matrix" values="0 0 0 0 0.635294 0 0 0 0 0.486275 0 0 0 0 0.776471 0 0 0 0.3 0"/>
<feBlend mode="normal" in2="BackgroundImageFix" result="effect1_dropShadow_1_3"/>
<feBlend mode="normal" in="SourceGraphic" in2="effect1_dropShadow_1_3" result="shape"/>
</filter>
<linearGradient id="paint0_linear_1_3" x1="968.629" y1="579.5" x2="-137.378" y2="394.481" gradientUnits="userSpaceOnUse">
<stop stop-color="#15D6E2"/>
<stop offset="0.946692" stop-color="white"/>
</linearGradient>
<linearGradient id="paint1_linear_1_3" x1="-335.5" y1="-512.5" x2="1996.5" y2="1581" gradientUnits="userSpaceOnUse">
<stop stop-color="#E9CFFF" stop-opacity="0.53"/>
<stop offset="1" stop-color="white" stop-opacity="0"/>
</linearGradient>
<clipPath id="clip0_1_3">
<rect x="120" y="116" width="1804" height="1000" rx="58" fill="white"/>
</clipPath>
</defs>
</svg>
