<svg xmlns="http://www.w3.org/2000/svg" xmlns:xlink="http://www.w3.org/1999/xlink" width="20" height="20" version="1.1" viewBox="0 0 800 800"><g><g id="Layer-1" data-name="Layer"><clipPath id="cp0"><path d="M 0 800 L 800 800 L 800 0 L 0 0 Z" transform="matrix(1,0,0,-1,0,800)"/></clipPath><g clip-path="url(#cp0)"><path fill="#0052ff" d="M 0 0 C .014 201.29 160.693 365.779 362.231 364.803 C 576.694 363.765 729.781 187.761 727.16 -4.678 C 724.521 -198.288 572.045 -362.98 361.897 -364.467 C 160.044 -365.895 -.014 -202.425 0 0" transform="matrix(1,0,0,-1,36.4038,400.1655)"/><path fill="#fff" d="M 0 0 C 66.241 35.938 149.1 38.813 217.985 8.625 C 291.471 -22.77 346.557 -90.851 364.611 -168.419 C 324.821 -168.534 284.974 -169.857 245.24 -167.672 C 221.665 -101.719 140.129 -66.701 74.866 -89.528 C 17.078 -107.469 -26.393 -166.407 -21.85 -227.53 C -22.598 -299.349 42.148 -363.289 113.679 -363.116 C 170.892 -366.394 225.92 -328.846 247.54 -276.521 C 286.583 -276.233 325.568 -276.118 364.611 -276.578 C 350.352 -338.448 313.493 -396.007 259.96 -430.967 C 199.93 -473.46 120.694 -484.902 50.255 -465.812 C -16.388 -447.24 -75.096 -400.606 -106.204 -338.563 C -138.691 -276.463 -143.521 -200.62 -118.336 -135.126 C -97.406 -77.511 -54.166 -28.578 0 0" transform="matrix(1,0,0,-1,286.5146,175.61719)"/></g></g></g></svg>